<svg xmlns="http://www.w3.org/2000/svg" xmlns:xlink="http://www.w3.org/1999/xlink" width="128" height="128" viewBox="0 0 128 128"><defs><clipPath id="b"><rect width="128" height="128"/></clipPath></defs><g id="a" clip-path="url(#b)"><rect width="128" height="128" fill="#fff"/><g transform="translate(-945)"><rect width="128" height="128" transform="translate(945)" fill="#3a5a99"/><path d="M1031.42,18.7H967.661a3.96,3.96,0,0,0-3.96,3.96V86.42a3.96,3.96,0,0,0,3.96,3.96h34.319V62.627h-9.337V51.8h9.337V43.833c0-9.261,5.662-14.306,13.914-14.306a80.5,80.5,0,0,1,8.358.422v9.683h-5.737c-4.518,0-5.361,2.138-5.361,5.271v6.9h10.722l-1.4,10.827h-9.321V90.38h18.266a3.961,3.961,0,0,0,3.961-3.961V22.66A3.96,3.96,0,0,0,1031.42,18.7Z" transform="translate(9.46 9.46)" fill="#fff"/></g></g></svg>