<svg xmlns="http://www.w3.org/2000/svg" xmlns:xlink="http://www.w3.org/1999/xlink" width="128" height="128" viewBox="0 0 128 128"><defs><clipPath id="b"><rect width="128" height="128"/></clipPath></defs><g id="a" clip-path="url(#b)"><rect width="128" height="128" fill="#fff"/><g transform="translate(-735 -105)"><rect width="128" height="128" transform="translate(735 105)" fill="#0076b2"/><g transform="translate(762.904 132.994)"><path d="M754.7,147.338h14.863v47.8H754.7Zm7.439-23.748a8.614,8.614,0,1,1-8.614,8.614,8.614,8.614,0,0,1,8.614-8.614" transform="translate(-753.53 -123.59)" fill="#fff"/><path d="M770.37,139.758H784.6v6.536h.271a15.6,15.6,0,0,1,14.05-7.71c15.059,0,17.814,9.894,17.814,22.754v26.217H801.888V164.319c0-5.542-.09-12.68-7.71-12.68s-8.915,6.024-8.915,12.273v23.642H770.43Z" transform="translate(-745.011 -116.011)" fill="#fff"/></g></g></g></svg>