<svg xmlns="http://www.w3.org/2000/svg" xmlns:xlink="http://www.w3.org/1999/xlink" width="128" height="128" viewBox="0 0 128 128"><defs><clipPath id="b"><rect width="128" height="128"/></clipPath></defs><g id="a" clip-path="url(#b)"><rect width="128" height="128" fill="#fff"/><g transform="translate(-840 -105)"><rect width="128" height="128" transform="translate(840 105)" fill="#bd081c"/><path d="M919.547,147.282c0,16.158-9.035,28.22-22.212,28.22-4.442,0-8.629-2.394-10.059-5.135,0,0-2.394,9.487-2.891,11.324-1.777,6.46-7.032,12.936-7.424,13.478a.557.557,0,0,1-.964-.241c-.105-.828-1.506-9.035.136-15.646.783-3.343,5.286-22.438,5.286-22.438a15.917,15.917,0,0,1-1.31-6.52c0-6.024,3.539-10.647,7.936-10.647,3.75,0,5.557,2.8,5.557,6.174,0,3.765-2.394,9.4-3.629,14.607a6.37,6.37,0,0,0,6.49,7.936c7.8,0,13.056-10.014,13.056-21.9,0-9.035-6.024-15.767-17.122-15.767-12.5,0-20.284,9.306-20.284,19.712a11.882,11.882,0,0,0,2.726,8.072,2,2,0,0,1,.587,2.3c-.2.753-.647,2.575-.843,3.3a1.506,1.506,0,0,1-2.063,1.039c-5.737-2.364-8.418-8.659-8.418-15.736,0-11.7,9.864-25.72,29.425-25.72C909.216,123.7,919.547,135.069,919.547,147.282Z" transform="translate(12.192 9.46)" fill="#fff"/></g></g></svg>