<svg xmlns="http://www.w3.org/2000/svg" xmlns:xlink="http://www.w3.org/1999/xlink" width="128" height="128" viewBox="0 0 128 128"><defs><clipPath id="b"><rect width="128" height="128"/></clipPath></defs><g id="a" clip-path="url(#b)"><rect width="128" height="128" fill="#fff"/><g transform="translate(-840 -210)"><rect width="128" height="128" transform="translate(840 210)" fill="#55acee"/><path d="M930.4,240.057a29.862,29.862,0,0,1-8.448,2.319,14.772,14.772,0,0,0,6.475-8.147,29.533,29.533,0,0,1-9.352,3.569,14.712,14.712,0,0,0-25.434,10.059,15.4,15.4,0,0,0,.377,3.358,41.833,41.833,0,0,1-30.328-15.285,14.712,14.712,0,0,0,4.518,19.576,14.728,14.728,0,0,1-6.671-1.837v.2a14.712,14.712,0,0,0,11.806,14.411,14.983,14.983,0,0,1-6.641.256,14.7,14.7,0,0,0,13.734,10.21,29.516,29.516,0,0,1-18.251,6.264,29.873,29.873,0,0,1-3.509-.211,41.487,41.487,0,0,0,22.588,6.611c27.106,0,41.848-22.408,41.848-41.833v-1.913a29.848,29.848,0,0,0,7.289-7.6Z" transform="translate(9.445 11.716)" fill="#fff"/></g></g></svg>