<svg xmlns="http://www.w3.org/2000/svg" xmlns:xlink="http://www.w3.org/1999/xlink" width="128" height="128" viewBox="0 0 128 128"><defs><clipPath id="b"><rect width="128" height="128"/></clipPath></defs><g id="a" clip-path="url(#b)"><rect width="128" height="128" fill="#fff"/><g transform="translate(-1155 -210)"><rect width="128" height="128" transform="translate(1155 210)" fill="#25d366"/><g transform="translate(1183.16 238.009)"><path d="M1173.7,300.6l5.06-18.492a35.689,35.689,0,1,1,30.931,17.875h0a35.643,35.643,0,0,1-17.062-4.337Zm19.8-11.415,1.084.633a29.5,29.5,0,0,0,15.059,4.141h0a29.666,29.666,0,0,0,20.977-50.643,29.364,29.364,0,0,0-20.962-8.7,29.681,29.681,0,0,0-25.148,45.448l.708,1.114-3.012,10.948Z" transform="translate(-1173.7 -228.599)" fill="#fff"/><path d="M1221.646,266.287c-.226-.376-.813-.6-1.7-1.039s-5.286-2.605-6.1-2.906-1.416-.452-2,.452-2.3,2.891-2.831,3.494-1.039.663-1.928.226a24.409,24.409,0,0,1-7.168-4.427,27.3,27.3,0,0,1-4.969-6.174,1.295,1.295,0,0,1,.392-1.822c.407-.407.888-1.039,1.34-1.506a6.5,6.5,0,0,0,.889-1.506,1.626,1.626,0,0,0,0-1.506c-.226-.437-2-4.834-2.741-6.611s-1.506-1.506-2.018-1.506h-1.7a3.267,3.267,0,0,0-2.379,1.114,10.029,10.029,0,0,0-3.117,7.439c0,4.4,3.193,8.629,3.629,9.231s6.295,9.593,15.24,13.463a53.991,53.991,0,0,0,5.09,1.882,12.274,12.274,0,0,0,5.617.346c1.717-.256,5.271-2.153,6.023-4.232A7.381,7.381,0,0,0,1221.646,266.287Z" transform="translate(-1167.675 -222.104)" fill="#fff" fill-rule="evenodd"/></g></g></g></svg>